<?xml version="1.0" encoding="UTF-8" standalone="no"?>
<!DOCTYPE svg PUBLIC "-//W3C//DTD SVG 1.1//EN"
 "http://www.w3.org/Graphics/SVG/1.1/DTD/svg11.dtd">
<!-- Generated by graphviz version 2.38.0 (20140413.2041)
 -->
<!-- Title: %3 Pages: 1 -->
<svg width="517pt" height="1718pt"
 viewBox="0.00 0.00 516.61 1718.00" xmlns="http://www.w3.org/2000/svg" xmlns:xlink="http://www.w3.org/1999/xlink">
<g id="graph0" class="graph" transform="scale(1 1) rotate(0) translate(4 1714)">
<title>%3</title>
<polygon fill="white" stroke="none" points="-4,4 -4,-1714 512.61,-1714 512.61,4 -4,4"/>
<text text-anchor="middle" x="254.305" y="-7.8" font-family="Times,serif" font-size="14.00">Booting MistifyOS</text>
<!-- start -->
<g id="node1" class="node"><title>start</title>
<path fill="none" stroke="black" d="M213.5,-1710C213.5,-1710 166.5,-1710 166.5,-1710 160.5,-1710 154.5,-1704 154.5,-1698 154.5,-1698 154.5,-1686 154.5,-1686 154.5,-1680 160.5,-1674 166.5,-1674 166.5,-1674 213.5,-1674 213.5,-1674 219.5,-1674 225.5,-1680 225.5,-1686 225.5,-1686 225.5,-1698 225.5,-1698 225.5,-1704 219.5,-1710 213.5,-1710"/>
<text text-anchor="middle" x="190" y="-1688.3" font-family="Times,serif" font-size="14.00">Power On</text>
</g>
<!-- media1 -->
<g id="node3" class="node"><title>media1</title>
<polygon fill="none" stroke="black" points="190,-1637 51.4142,-1619 190,-1601 328.586,-1619 190,-1637"/>
<text text-anchor="middle" x="190" y="-1615.3" font-family="Times,serif" font-size="14.00">Physical Media Present?</text>
</g>
<!-- start&#45;&gt;media1 -->
<g id="edge1" class="edge"><title>start&#45;&gt;media1</title>
<path fill="none" stroke="black" d="M190,-1673.81C190,-1665.79 190,-1656.05 190,-1647.07"/>
<polygon fill="black" stroke="black" points="193.5,-1647.03 190,-1637.03 186.5,-1647.03 193.5,-1647.03"/>
</g>
<!-- fail -->
<g id="node2" class="node"><title>fail</title>
<path fill="none" stroke="black" d="M170,-1462C170,-1462 140,-1462 140,-1462 134,-1462 128,-1456 128,-1450 128,-1450 128,-1438 128,-1438 128,-1432 134,-1426 140,-1426 140,-1426 170,-1426 170,-1426 176,-1426 182,-1432 182,-1438 182,-1438 182,-1450 182,-1450 182,-1456 176,-1462 170,-1462"/>
<text text-anchor="middle" x="155" y="-1440.3" font-family="Times,serif" font-size="14.00">FAIL</text>
</g>
<!-- grub1 -->
<g id="node4" class="node"><title>grub1</title>
<polygon fill="none" stroke="black" points="142,-1550 58,-1550 58,-1514 142,-1514 142,-1550"/>
<text text-anchor="middle" x="100" y="-1528.3" font-family="Times,serif" font-size="14.00">Boot GRUB</text>
</g>
<!-- media1&#45;&gt;grub1 -->
<g id="edge2" class="edge"><title>media1&#45;&gt;grub1</title>
<path fill="none" stroke="black" d="M173.91,-1602.8C160.44,-1590.08 140.977,-1571.7 125.405,-1556.99"/>
<polygon fill="black" stroke="black" points="127.79,-1554.43 118.116,-1550.11 122.983,-1559.52 127.79,-1554.43"/>
<text text-anchor="middle" x="160.5" y="-1571.8" font-family="Times,serif" font-size="14.00">yes</text>
</g>
<!-- pxe1 -->
<g id="node7" class="node"><title>pxe1</title>
<polygon fill="none" stroke="black" points="281,-1550 159.842,-1532 281,-1514 402.158,-1532 281,-1550"/>
<text text-anchor="middle" x="281" y="-1528.3" font-family="Times,serif" font-size="14.00">PXE Boot Succeeds?</text>
</g>
<!-- media1&#45;&gt;pxe1 -->
<g id="edge5" class="edge"><title>media1&#45;&gt;pxe1</title>
<path fill="none" stroke="black" d="M206.269,-1602.8C220.591,-1589.43 241.615,-1569.79 257.718,-1554.75"/>
<polygon fill="black" stroke="black" points="260.258,-1557.16 265.177,-1547.78 255.48,-1552.05 260.258,-1557.16"/>
<text text-anchor="middle" x="248" y="-1571.8" font-family="Times,serif" font-size="14.00">no</text>
</g>
<!-- grub2 -->
<g id="node5" class="node"><title>grub2</title>
<polygon fill="none" stroke="black" points="178,-1407 80,-1407 80,-1371 178,-1371 178,-1407"/>
<text text-anchor="middle" x="129" y="-1385.3" font-family="Times,serif" font-size="14.00">Set kernel args</text>
</g>
<!-- grub1&#45;&gt;grub2 -->
<g id="edge3" class="edge"><title>grub1&#45;&gt;grub2</title>
<path fill="none" stroke="black" d="M102.562,-1513.63C105.798,-1492.55 111.821,-1455.96 119,-1425 119.621,-1422.32 120.32,-1419.54 121.052,-1416.78"/>
<polygon fill="black" stroke="black" points="124.463,-1417.57 123.77,-1407 117.719,-1415.7 124.463,-1417.57"/>
</g>
<!-- boot1 -->
<g id="node6" class="node"><title>boot1</title>
<polygon fill="none" stroke="black" points="215.5,-1278 132.5,-1278 132.5,-1242 215.5,-1242 215.5,-1278"/>
<text text-anchor="middle" x="174" y="-1256.3" font-family="Times,serif" font-size="14.00">Boot Kernel</text>
</g>
<!-- grub2&#45;&gt;boot1 -->
<g id="edge4" class="edge"><title>grub2&#45;&gt;boot1</title>
<path fill="none" stroke="black" d="M135.069,-1370.87C142.617,-1349.57 155.591,-1312.95 164.471,-1287.89"/>
<polygon fill="black" stroke="black" points="167.843,-1288.86 167.884,-1278.26 161.245,-1286.52 167.843,-1288.86"/>
</g>
<!-- boot2 -->
<g id="node10" class="node"><title>boot2</title>
<polygon fill="none" stroke="black" points="234.5,-1205 113.5,-1205 113.5,-1122 234.5,-1122 234.5,-1205"/>
<text text-anchor="middle" x="174" y="-1189.8" font-family="Times,serif" font-size="14.00">Execute /init</text>
<text text-anchor="middle" x="174" y="-1174.8" font-family="Times,serif" font-size="14.00">All following steps</text>
<text text-anchor="middle" x="174" y="-1159.8" font-family="Times,serif" font-size="14.00">are in /init</text>
<text text-anchor="middle" x="174" y="-1144.8" font-family="Times,serif" font-size="14.00">until execution of</text>
<text text-anchor="middle" x="174" y="-1129.8" font-family="Times,serif" font-size="14.00">systemd</text>
</g>
<!-- boot1&#45;&gt;boot2 -->
<g id="edge10" class="edge"><title>boot1&#45;&gt;boot2</title>
<path fill="none" stroke="black" d="M174,-1241.67C174,-1234.15 174,-1224.93 174,-1215.5"/>
<polygon fill="black" stroke="black" points="177.5,-1215.26 174,-1205.26 170.5,-1215.26 177.5,-1215.26"/>
</g>
<!-- pxe1&#45;&gt;fail -->
<g id="edge7" class="edge"><title>pxe1&#45;&gt;fail</title>
<path fill="none" stroke="black" d="M260.475,-1516.99C241.06,-1503.74 211.569,-1483.61 188.702,-1468"/>
<polygon fill="black" stroke="black" points="190.531,-1465.01 180.298,-1462.27 186.584,-1470.8 190.531,-1465.01"/>
<text text-anchor="middle" x="237" y="-1484.8" font-family="Times,serif" font-size="14.00">no</text>
</g>
<!-- ipxe1 -->
<g id="node8" class="node"><title>ipxe1</title>
<polygon fill="none" stroke="black" points="364,-1463 200,-1463 200,-1425 364,-1425 364,-1463"/>
<text text-anchor="middle" x="282" y="-1447.8" font-family="Times,serif" font-size="14.00">Chain to IPXE</text>
<text text-anchor="middle" x="282" y="-1432.8" font-family="Times,serif" font-size="14.00">Load IPXE script over http</text>
</g>
<!-- pxe1&#45;&gt;ipxe1 -->
<g id="edge6" class="edge"><title>pxe1&#45;&gt;ipxe1</title>
<path fill="none" stroke="black" d="M281.198,-1514.01C281.332,-1502.42 281.514,-1486.8 281.67,-1473.35"/>
<polygon fill="black" stroke="black" points="285.172,-1473.18 281.789,-1463.14 278.173,-1473.1 285.172,-1473.18"/>
<text text-anchor="middle" x="291.5" y="-1484.8" font-family="Times,serif" font-size="14.00">yes</text>
</g>
<!-- ipxe2 -->
<g id="node9" class="node"><title>ipxe2</title>
<polygon fill="none" stroke="black" points="359.5,-1353 168.5,-1353 168.5,-1315 359.5,-1315 359.5,-1353"/>
<text text-anchor="middle" x="264" y="-1337.8" font-family="Times,serif" font-size="14.00">Set kernel args:</text>
<text text-anchor="middle" x="264" y="-1322.8" font-family="Times,serif" font-size="14.00">mac addr, cluster ip, my ip, etc.</text>
</g>
<!-- ipxe1&#45;&gt;ipxe2 -->
<g id="edge8" class="edge"><title>ipxe1&#45;&gt;ipxe2</title>
<path fill="none" stroke="black" d="M278.947,-1424.68C276.137,-1407.82 271.928,-1382.57 268.691,-1363.15"/>
<polygon fill="black" stroke="black" points="272.105,-1362.34 267.008,-1353.05 265.2,-1363.49 272.105,-1362.34"/>
</g>
<!-- ipxe2&#45;&gt;boot1 -->
<g id="edge9" class="edge"><title>ipxe2&#45;&gt;boot1</title>
<path fill="none" stroke="black" d="M241.289,-1314.83C229.866,-1305.69 215.878,-1294.5 203.621,-1284.7"/>
<polygon fill="black" stroke="black" points="205.459,-1281.69 195.464,-1278.17 201.087,-1287.15 205.459,-1281.69"/>
</g>
<!-- boot3 -->
<g id="node11" class="node"><title>boot3</title>
<polygon fill="none" stroke="black" points="207,-1085 141,-1085 141,-1049 207,-1049 207,-1085"/>
<text text-anchor="middle" x="174" y="-1063.3" font-family="Times,serif" font-size="14.00">udev etc.</text>
</g>
<!-- boot2&#45;&gt;boot3 -->
<g id="edge11" class="edge"><title>boot2&#45;&gt;boot3</title>
<path fill="none" stroke="black" d="M174,-1121.88C174,-1112.97 174,-1103.75 174,-1095.5"/>
<polygon fill="black" stroke="black" points="177.5,-1095.33 174,-1085.33 170.5,-1095.33 177.5,-1095.33"/>
</g>
<!-- walkthrough1 -->
<g id="node12" class="node"><title>walkthrough1</title>
<polygon fill="none" stroke="black" points="263.5,-1012 84.5,-1012 84.5,-976 263.5,-976 263.5,-1012"/>
<text text-anchor="middle" x="174" y="-990.3" font-family="Times,serif" font-size="14.00">begin boot time configuration</text>
</g>
<!-- boot3&#45;&gt;walkthrough1 -->
<g id="edge12" class="edge"><title>boot3&#45;&gt;walkthrough1</title>
<path fill="none" stroke="black" d="M174,-1048.81C174,-1040.79 174,-1031.05 174,-1022.07"/>
<polygon fill="black" stroke="black" points="177.5,-1022.03 174,-1012.03 170.5,-1022.03 177.5,-1022.03"/>
</g>
<!-- zfs1 -->
<g id="node13" class="node"><title>zfs1</title>
<polygon fill="none" stroke="black" points="174,-939 74.9615,-921 174,-903 273.039,-921 174,-939"/>
<text text-anchor="middle" x="174" y="-917.3" font-family="Times,serif" font-size="14.00">ZFS pool exists?</text>
</g>
<!-- walkthrough1&#45;&gt;zfs1 -->
<g id="edge13" class="edge"><title>walkthrough1&#45;&gt;zfs1</title>
<path fill="none" stroke="black" d="M174,-975.813C174,-967.789 174,-958.047 174,-949.069"/>
<polygon fill="black" stroke="black" points="177.5,-949.029 174,-939.029 170.5,-949.029 177.5,-949.029"/>
</g>
<!-- zfsimport -->
<g id="node14" class="node"><title>zfsimport</title>
<polygon fill="none" stroke="black" points="207,-798 99,-798 99,-762 207,-762 207,-798"/>
<text text-anchor="middle" x="153" y="-776.3" font-family="Times,serif" font-size="14.00">import ZFS pool</text>
</g>
<!-- zfs1&#45;&gt;zfsimport -->
<g id="edge14" class="edge"><title>zfs1&#45;&gt;zfsimport</title>
<path fill="none" stroke="black" d="M171.467,-903.233C167.907,-879.671 161.384,-836.493 157.12,-808.273"/>
<polygon fill="black" stroke="black" points="160.563,-807.627 155.608,-798.262 153.641,-808.673 160.563,-807.627"/>
<text text-anchor="middle" x="178.5" y="-873.8" font-family="Times,serif" font-size="14.00">yes</text>
</g>
<!-- zfs2 -->
<g id="node15" class="node"><title>zfs2</title>
<polygon fill="none" stroke="black" points="345,-852 181.28,-834 345,-816 508.72,-834 345,-852"/>
<text text-anchor="middle" x="345" y="-830.3" font-family="Times,serif" font-size="14.00">User wants Auto ZFS layout?</text>
</g>
<!-- zfs1&#45;&gt;zfs2 -->
<g id="edge15" class="edge"><title>zfs1&#45;&gt;zfs2</title>
<path fill="none" stroke="black" d="M199.232,-907.458C227.812,-893.251 274.672,-869.958 307.527,-853.627"/>
<polygon fill="black" stroke="black" points="309.42,-856.595 316.817,-849.009 306.304,-850.326 309.42,-856.595"/>
<text text-anchor="middle" x="277" y="-873.8" font-family="Times,serif" font-size="14.00">no</text>
</g>
<!-- walkthrough2 -->
<g id="node18" class="node"><title>walkthrough2</title>
<polygon fill="none" stroke="black" points="179,-598 2.84217e-14,-560 179,-522 358,-560 179,-598"/>
<text text-anchor="middle" x="179" y="-563.8" font-family="Times,serif" font-size="14.00">Were we booted with </text>
<text text-anchor="middle" x="179" y="-548.8" font-family="Times,serif" font-size="14.00">MAC, IP, and Cluster config?</text>
</g>
<!-- zfsimport&#45;&gt;walkthrough2 -->
<g id="edge20" class="edge"><title>zfsimport&#45;&gt;walkthrough2</title>
<path fill="none" stroke="black" d="M155.04,-761.894C158.966,-728.978 167.692,-655.812 173.459,-607.46"/>
<polygon fill="black" stroke="black" points="176.968,-607.587 174.677,-597.243 170.018,-606.758 176.968,-607.587"/>
</g>
<!-- zfscreate -->
<g id="node16" class="node"><title>zfscreate</title>
<polygon fill="none" stroke="black" points="285,-671 181,-671 181,-635 285,-635 285,-671"/>
<text text-anchor="middle" x="233" y="-649.3" font-family="Times,serif" font-size="14.00">create ZFS pool</text>
</g>
<!-- zfs2&#45;&gt;zfscreate -->
<g id="edge16" class="edge"><title>zfs2&#45;&gt;zfscreate</title>
<path fill="none" stroke="black" d="M317.509,-818.851C291.898,-804.011 255.162,-778.102 238,-744 228.297,-724.719 227.598,-700.089 229.018,-681.47"/>
<polygon fill="black" stroke="black" points="232.523,-681.59 230.046,-671.288 225.559,-680.886 232.523,-681.59"/>
<text text-anchor="middle" x="247.5" y="-722.3" font-family="Times,serif" font-size="14.00">yes</text>
</g>
<!-- zfsprompt -->
<g id="node17" class="node"><title>zfsprompt</title>
<polygon fill="none" stroke="black" points="433.5,-744 266.5,-744 266.5,-708 433.5,-708 433.5,-744"/>
<text text-anchor="middle" x="350" y="-722.3" font-family="Times,serif" font-size="14.00">prompt user for ZFS layout</text>
</g>
<!-- zfs2&#45;&gt;zfsprompt -->
<g id="edge18" class="edge"><title>zfs2&#45;&gt;zfsprompt</title>
<path fill="none" stroke="black" d="M345.803,-815.969C346.586,-799.378 347.789,-773.883 348.706,-754.431"/>
<polygon fill="black" stroke="black" points="352.207,-754.494 349.182,-744.341 345.215,-754.165 352.207,-754.494"/>
<text text-anchor="middle" x="355" y="-776.3" font-family="Times,serif" font-size="14.00">no</text>
</g>
<!-- zfscreate&#45;&gt;walkthrough2 -->
<g id="edge19" class="edge"><title>zfscreate&#45;&gt;walkthrough2</title>
<path fill="none" stroke="black" d="M222.843,-634.884C217.39,-625.693 210.41,-613.931 203.631,-602.507"/>
<polygon fill="black" stroke="black" points="206.628,-600.699 198.514,-593.885 200.608,-604.271 206.628,-600.699"/>
</g>
<!-- zfsprompt&#45;&gt;zfscreate -->
<g id="edge17" class="edge"><title>zfsprompt&#45;&gt;zfscreate</title>
<path fill="none" stroke="black" d="M321.976,-707.994C306.46,-698.579 286.977,-686.755 270.201,-676.575"/>
<polygon fill="black" stroke="black" points="271.566,-673.309 261.201,-671.114 267.935,-679.294 271.566,-673.309"/>
</g>
<!-- net2 -->
<g id="node19" class="node"><title>net2</title>
<polygon fill="none" stroke="black" points="276,-311 142,-311 142,-273 276,-273 276,-311"/>
<text text-anchor="middle" x="209" y="-295.8" font-family="Times,serif" font-size="14.00">Store Network config</text>
<text text-anchor="middle" x="209" y="-280.8" font-family="Times,serif" font-size="14.00">Set up networking</text>
</g>
<!-- walkthrough2&#45;&gt;net2 -->
<g id="edge21" class="edge"><title>walkthrough2&#45;&gt;net2</title>
<path fill="none" stroke="black" d="M178.316,-522.001C178.247,-497.298 178.9,-464.122 182,-435 186.239,-395.172 195.688,-349.809 202.202,-321.295"/>
<polygon fill="black" stroke="black" points="205.685,-321.771 204.538,-311.238 198.866,-320.187 205.685,-321.771"/>
<text text-anchor="middle" x="196.5" y="-405.8" font-family="Times,serif" font-size="14.00">yes</text>
</g>
<!-- walkthrough3 -->
<g id="node20" class="node"><title>walkthrough3</title>
<polygon fill="none" stroke="black" points="303,-471 190.725,-453 303,-435 415.275,-453 303,-471"/>
<text text-anchor="middle" x="303" y="-449.3" font-family="Times,serif" font-size="14.00">Is IP config stored?</text>
</g>
<!-- walkthrough2&#45;&gt;walkthrough3 -->
<g id="edge22" class="edge"><title>walkthrough2&#45;&gt;walkthrough3</title>
<path fill="none" stroke="black" d="M214.202,-529.192C234.568,-511.947 259.711,-490.656 278.038,-475.137"/>
<polygon fill="black" stroke="black" points="280.567,-477.582 285.937,-468.448 276.044,-472.239 280.567,-477.582"/>
<text text-anchor="middle" x="267" y="-492.8" font-family="Times,serif" font-size="14.00">no</text>
</g>
<!-- walkthrough4 -->
<g id="node22" class="node"><title>walkthrough4</title>
<polygon fill="none" stroke="black" points="209,-236 57.1779,-218 209,-200 360.822,-218 209,-236"/>
<text text-anchor="middle" x="209" y="-214.3" font-family="Times,serif" font-size="14.00">Do we have cluster config?</text>
</g>
<!-- net2&#45;&gt;walkthrough4 -->
<g id="edge26" class="edge"><title>net2&#45;&gt;walkthrough4</title>
<path fill="none" stroke="black" d="M209,-272.831C209,-264.894 209,-255.409 209,-246.628"/>
<polygon fill="black" stroke="black" points="212.5,-246.418 209,-236.418 205.5,-246.418 212.5,-246.418"/>
</g>
<!-- walkthrough3&#45;&gt;net2 -->
<g id="edge24" class="edge"><title>walkthrough3&#45;&gt;net2</title>
<path fill="none" stroke="black" d="M277.504,-439.029C257.668,-427.468 231.343,-408.581 218,-384 207.632,-364.9 205.779,-340.205 206.299,-321.361"/>
<polygon fill="black" stroke="black" points="209.798,-321.464 206.813,-311.299 202.807,-321.107 209.798,-321.464"/>
<text text-anchor="middle" x="227.5" y="-362.3" font-family="Times,serif" font-size="14.00">yes</text>
</g>
<!-- net1 -->
<g id="node21" class="node"><title>net1</title>
<polygon fill="none" stroke="black" points="437.5,-384 246.5,-384 246.5,-348 437.5,-348 437.5,-384"/>
<text text-anchor="middle" x="342" y="-362.3" font-family="Times,serif" font-size="14.00">prompt user for Network config</text>
</g>
<!-- walkthrough3&#45;&gt;net1 -->
<g id="edge23" class="edge"><title>walkthrough3&#45;&gt;net1</title>
<path fill="none" stroke="black" d="M310.336,-436.012C315.857,-423.977 323.546,-407.22 329.964,-393.232"/>
<polygon fill="black" stroke="black" points="333.173,-394.631 334.162,-384.083 326.811,-391.712 333.173,-394.631"/>
<text text-anchor="middle" x="331" y="-405.8" font-family="Times,serif" font-size="14.00">no</text>
</g>
<!-- net1&#45;&gt;net2 -->
<g id="edge25" class="edge"><title>net1&#45;&gt;net2</title>
<path fill="none" stroke="black" d="M310.481,-347.937C292.841,-338.388 270.611,-326.353 251.457,-315.984"/>
<polygon fill="black" stroke="black" points="253.078,-312.882 242.618,-311.199 249.746,-319.038 253.078,-312.882"/>
</g>
<!-- cluster -->
<g id="node23" class="node"><title>cluster</title>
<polygon fill="none" stroke="black" points="232,-149 104,-149 104,-96 232,-96 232,-149"/>
<text text-anchor="middle" x="168" y="-133.8" font-family="Times,serif" font-size="14.00">Store cluster info</text>
<text text-anchor="middle" x="168" y="-118.8" font-family="Times,serif" font-size="14.00">and systemd configs</text>
<text text-anchor="middle" x="168" y="-103.8" font-family="Times,serif" font-size="14.00">for cluster software</text>
</g>
<!-- walkthrough4&#45;&gt;cluster -->
<g id="edge27" class="edge"><title>walkthrough4&#45;&gt;cluster</title>
<path fill="none" stroke="black" d="M201.858,-200.714C196.739,-189.039 189.652,-172.876 183.284,-158.354"/>
<polygon fill="black" stroke="black" points="186.452,-156.864 179.231,-149.111 180.041,-159.675 186.452,-156.864"/>
<text text-anchor="middle" x="203.5" y="-170.8" font-family="Times,serif" font-size="14.00">yes</text>
</g>
<!-- nocluster -->
<g id="node24" class="node"><title>nocluster</title>
<polygon fill="none" stroke="black" points="327.5,-141.5 250.5,-141.5 250.5,-103.5 327.5,-103.5 327.5,-141.5"/>
<text text-anchor="middle" x="289" y="-126.3" font-family="Times,serif" font-size="14.00">Not part</text>
<text text-anchor="middle" x="289" y="-111.3" font-family="Times,serif" font-size="14.00">of a cluster</text>
</g>
<!-- walkthrough4&#45;&gt;nocluster -->
<g id="edge28" class="edge"><title>walkthrough4&#45;&gt;nocluster</title>
<path fill="none" stroke="black" d="M222.21,-201.56C234.338,-187.386 252.548,-166.104 266.891,-149.34"/>
<polygon fill="black" stroke="black" points="269.736,-151.398 273.578,-141.524 264.417,-146.847 269.736,-151.398"/>
<text text-anchor="middle" x="259" y="-170.8" font-family="Times,serif" font-size="14.00">no</text>
</g>
<!-- end -->
<g id="node25" class="node"><title>end</title>
<path fill="none" stroke="black" d="M273.5,-59C273.5,-59 206.5,-59 206.5,-59 200.5,-59 194.5,-53 194.5,-47 194.5,-47 194.5,-35 194.5,-35 194.5,-29 200.5,-23 206.5,-23 206.5,-23 273.5,-23 273.5,-23 279.5,-23 285.5,-29 285.5,-35 285.5,-35 285.5,-47 285.5,-47 285.5,-53 279.5,-59 273.5,-59"/>
<text text-anchor="middle" x="240" y="-37.3" font-family="Times,serif" font-size="14.00">Start systemd</text>
</g>
<!-- cluster&#45;&gt;end -->
<g id="edge29" class="edge"><title>cluster&#45;&gt;end</title>
<path fill="none" stroke="black" d="M191.178,-95.9081C199.656,-86.5461 209.227,-75.9789 217.633,-66.6966"/>
<polygon fill="black" stroke="black" points="220.253,-69.018 224.372,-59.2564 215.064,-64.319 220.253,-69.018"/>
</g>
<!-- nocluster&#45;&gt;end -->
<g id="edge30" class="edge"><title>nocluster&#45;&gt;end</title>
<path fill="none" stroke="black" d="M277.881,-103.46C271.42,-92.9771 263.167,-79.588 256.016,-67.9844"/>
<polygon fill="black" stroke="black" points="258.798,-65.8274 250.571,-59.1509 252.838,-69.5003 258.798,-65.8274"/>
</g>
</g>
</svg>
