<?xml version="1.0" encoding="UTF-8" standalone="no"?>
<!-- Created with Inkscape (http://www.inkscape.org/) -->

<svg
   xmlns:dc="http://purl.org/dc/elements/1.1/"
   xmlns:cc="http://creativecommons.org/ns#"
   xmlns:rdf="http://www.w3.org/1999/02/22-rdf-syntax-ns#"
   xmlns:svg="http://www.w3.org/2000/svg"
   xmlns="http://www.w3.org/2000/svg"
   xmlns:sodipodi="http://sodipodi.sourceforge.net/DTD/sodipodi-0.dtd"
   xmlns:inkscape="http://www.inkscape.org/namespaces/inkscape"
   id="svg3904"
   version="1.1"
   inkscape:version="0.91 r13725"
   xml:space="preserve"
   width="1407.5532"
   height="593.97125"
   viewBox="0 0 1407.5532 593.97127"
   sodipodi:docname="cerana_logo_side.svg"><metadata
     id="metadata3910"><rdf:RDF><cc:Work
         rdf:about=""><dc:format>image/svg+xml</dc:format><dc:type
           rdf:resource="http://purl.org/dc/dcmitype/StillImage" /><dc:title></dc:title></cc:Work></rdf:RDF></metadata><defs
     id="defs3908"><clipPath
       clipPathUnits="userSpaceOnUse"
       id="clipPath3922"><path
         d="m 0,1092.056 1224,0 L 1224,0 0,0 0,1092.056 Z"
         id="path3924"
         inkscape:connector-curvature="0" /></clipPath></defs><sodipodi:namedview
     pagecolor="#ffffff"
     bordercolor="#666666"
     borderopacity="1"
     objecttolerance="10"
     gridtolerance="10"
     guidetolerance="10"
     inkscape:pageopacity="0"
     inkscape:pageshadow="2"
     inkscape:window-width="973"
     inkscape:window-height="686"
     id="namedview3906"
     showgrid="false"
     fit-margin-top="0"
     fit-margin-left="0"
     fit-margin-right="0"
     fit-margin-bottom="0"
     inkscape:zoom="0.51460809"
     inkscape:cx="865.33474"
     inkscape:cy="281.37278"
     inkscape:window-x="20"
     inkscape:window-y="42"
     inkscape:window-maximized="0"
     inkscape:current-layer="g3912" /><g
     id="g3912"
     inkscape:groupmode="layer"
     inkscape:label="Cerana_Logo_FINAL"
     transform="matrix(1.25,0,0,-1.25,-183.40212,1003.8525)"><g
       id="g3930"
       transform="translate(162.5547,494.3263)"><path
         d="m 0,0 1.167,9.141 -7.332,5.581 -8.5,-3.559 L -15.833,2.022 -8.5,-3.56 0,0 Z"
         style="fill:#58595b;fill-opacity:1;fill-rule:nonzero;stroke:none"
         id="path3932"
         inkscape:connector-curvature="0" /></g><g
       id="g3934"
       transform="translate(234.1857,502.0185)"><path
         d="M 0,0 -36.111,12.704 -74.841,-1.477"
         style="fill:none;stroke:#58595b;stroke-width:7.66800022;stroke-linecap:round;stroke-linejoin:round;stroke-miterlimit:10;stroke-dasharray:none;stroke-opacity:1"
         id="path3936"
         inkscape:connector-curvature="0" /></g><g
       id="g3938"
       transform="translate(162.5547,443.6415)"><path
         d="m 0,0 1.167,9.141 -7.332,5.581 -8.5,-3.559 L -15.833,2.022 -8.5,-3.56 0,0 Z"
         style="fill:#58595b;fill-opacity:1;fill-rule:nonzero;stroke:none"
         id="path3940"
         inkscape:connector-curvature="0" /></g><g
       id="g3942"
       transform="translate(234.1857,451.3337)"><path
         d="M 0,0 -36.111,12.704 -74.841,-1.477"
         style="fill:none;stroke:#58595b;stroke-width:7.66800022;stroke-linecap:round;stroke-linejoin:round;stroke-miterlimit:10;stroke-dasharray:none;stroke-opacity:1"
         id="path3944"
         inkscape:connector-curvature="0" /></g><g
       id="g3946"
       transform="translate(518.6913,499.9572)"><path
         d="m 0,0 -1.167,9.141 7.332,5.581 8.5,-3.559 L 15.833,2.022 8.5,-3.56 0,0 Z"
         style="fill:#58595b;fill-opacity:1;fill-rule:nonzero;stroke:none"
         id="path3948"
         inkscape:connector-curvature="0" /></g><g
       id="g3950"
       transform="translate(450.6162,507.0157)"><path
         d="M 0,0 36.111,12.704 74.841,-1.477"
         style="fill:none;stroke:#58595b;stroke-width:7.66800022;stroke-linecap:round;stroke-linejoin:round;stroke-miterlimit:10;stroke-dasharray:none;stroke-opacity:1"
         id="path3952"
         inkscape:connector-curvature="0" /></g><g
       id="g3954"
       transform="translate(512.2827,444.1598)"><path
         d="m 0,0 -1.167,9.141 7.332,5.581 8.5,-3.559 L 15.833,2.022 8.5,-3.56 0,0 Z"
         style="fill:#58595b;fill-opacity:1;fill-rule:nonzero;stroke:none"
         id="path3956"
         inkscape:connector-curvature="0" /></g><g
       id="g3958"
       transform="translate(444.2076,451.2183)"><path
         d="M 0,0 36.111,12.704 74.841,-1.477"
         style="fill:none;stroke:#58595b;stroke-width:7.66800022;stroke-linecap:round;stroke-linejoin:round;stroke-miterlimit:10;stroke-dasharray:none;stroke-opacity:1"
         id="path3960"
         inkscape:connector-curvature="0" /></g><g
       id="g3962"
       transform="translate(336.5225,676.9244)"><path
         d="m 0,0 101.582,41.453 77.964,-61.642 -12.557,-102.984 -96.585,-36.456"
         style="fill:#c1e8fb;fill-opacity:1;fill-rule:nonzero;stroke:#0682ba;stroke-width:11.00699997;stroke-linecap:butt;stroke-linejoin:miter;stroke-miterlimit:10;stroke-dasharray:none;stroke-opacity:1"
         id="path3964"
         inkscape:connector-curvature="0" /></g><g
       id="g3966"
       transform="translate(334.4499,678.0187)"><path
         d="m 0,0 -101.582,41.453 -77.964,-61.642 12.557,-102.984 96.585,-36.456"
         style="fill:#c1e8fb;fill-opacity:1;fill-rule:nonzero;stroke:#0682ba;stroke-width:11.00699997;stroke-linecap:butt;stroke-linejoin:miter;stroke-miterlimit:10;stroke-dasharray:none;stroke-opacity:1"
         id="path3968"
         inkscape:connector-curvature="0" /></g><g
       id="g3970"
       transform="translate(218.7098,557.8073)"><path
         d="M 0,0 121.913,61.124 243.826,0 l 0,-122.247 -126.71,-56.124 L 0,-122.247 0,0 Z"
         style="fill:#faaf41;fill-opacity:1;fill-rule:nonzero;stroke:none"
         id="path3972"
         inkscape:connector-curvature="0" /></g><g
       id="g3974"
       transform="translate(218.7098,557.8073)"><path
         d="M 0,0 121.913,61.124 243.826,0 l 0,-122.247 -126.71,-56.124 L 0,-122.247 0,0 Z"
         style="fill:none;stroke:#58595b;stroke-width:9.60599995;stroke-linecap:butt;stroke-linejoin:miter;stroke-miterlimit:10;stroke-dasharray:none;stroke-opacity:1"
         id="path3976"
         inkscape:connector-curvature="0" /></g><g
       id="g3978"
       transform="translate(336.9236,560.0156)"><path
         d="m 0,0 -77.62,36.498 -0.545,90.04 77.225,38.67 77.638,-39.615 0.546,-90.04 L 0,0 Z"
         style="fill:#faaf41;fill-opacity:1;fill-rule:nonzero;stroke:none"
         id="path3980"
         inkscape:connector-curvature="0" /></g><g
       id="g3982"
       transform="translate(336.9236,560.0156)"><path
         d="m 0,0 -77.62,36.498 -0.545,90.04 77.225,38.67 77.638,-39.615 0.546,-90.04 L 0,0 Z"
         style="fill:none;stroke:#58595b;stroke-width:9.65499973;stroke-linecap:butt;stroke-linejoin:miter;stroke-miterlimit:10;stroke-dasharray:none;stroke-opacity:1"
         id="path3984"
         inkscape:connector-curvature="0" /></g><g
       id="g3986"
       transform="translate(411.7834,774.3716)"><path
         d="M 0,0 0.795,19.354 17.954,28.343 34.318,17.977 33.523,-1.377 16.364,-10.366 0,0 Z"
         style="fill:#58595b;fill-opacity:1;fill-rule:nonzero;stroke:none"
         id="path3988"
         inkscape:connector-curvature="0" /></g><g
       id="g3990"
       transform="translate(258.4678,774.739)"><path
         d="m 0,0 -0.795,19.354 -17.159,8.989 -16.364,-10.366 0.795,-19.354 17.159,-8.989 L 0,0 Z"
         style="fill:#58595b;fill-opacity:1;fill-rule:nonzero;stroke:none"
         id="path3992"
         inkscape:connector-curvature="0" /></g><g
       id="g3994"
       transform="translate(335.8254,472.5413)"><path
         d="m 0,0 -117.653,50.278 1.074,32.863 L -0.278,32.369 124.871,87.489 126.418,54.817 0,0 Z"
         style="fill:#58595b;fill-opacity:1;fill-rule:nonzero;stroke:none"
         id="path3996"
         inkscape:connector-curvature="0" /></g><g
       id="g3998"
       transform="translate(450.9055,332.836)"><path
         d="M 0,0 0.378,9.207 8.541,13.484 16.326,8.552 15.948,-0.655 7.785,-4.931 0,0 Z"
         style="fill:#58595b;fill-opacity:1;fill-rule:nonzero;stroke:none"
         id="path4000"
         inkscape:connector-curvature="0" /></g><g
       id="g4002"
       transform="translate(317.2844,606.2336)"><path
         d="M 0,0 37.082,0"
         style="fill:none;stroke:#424143;stroke-width:4.99700022;stroke-linecap:round;stroke-linejoin:round;stroke-miterlimit:10;stroke-dasharray:none;stroke-opacity:1"
         id="path4004"
         inkscape:connector-curvature="0" /></g><g
       id="g4006"
       transform="translate(403.6739,408.1252)"><path
         d="m 0,0 52.437,-20.882 2.958,-43.039"
         style="fill:none;stroke:#58595b;stroke-width:9.33100033;stroke-linecap:round;stroke-linejoin:round;stroke-miterlimit:10;stroke-dasharray:none;stroke-opacity:1"
         id="path4008"
         inkscape:connector-curvature="0" /></g><g
       id="g4010"
       transform="translate(229.1622,332.836)"><path
         d="m 0,0 -0.378,9.207 -8.163,4.277 -7.785,-4.932 0.378,-9.207 8.163,-4.276 L 0,0 Z"
         style="fill:#58595b;fill-opacity:1;fill-rule:nonzero;stroke:none"
         id="path4012"
         inkscape:connector-curvature="0" /></g><g
       id="g4014"
       transform="translate(277.7376,405.6533)"><path
         d="m 0,0 -53.781,-18.41 -2.957,-43.039"
         style="fill:none;stroke:#58595b;stroke-width:9.33100033;stroke-linecap:round;stroke-linejoin:round;stroke-miterlimit:10;stroke-dasharray:none;stroke-opacity:1"
         id="path4016"
         inkscape:connector-curvature="0" /></g><g
       id="g4018"
       transform="translate(416.9963,783.3603)"><path
         d="M 0,0 -34.106,-13.302 -63.258,-67.94"
         style="fill:none;stroke:#58595b;stroke-width:7.66800022;stroke-linecap:round;stroke-linejoin:round;stroke-miterlimit:10;stroke-dasharray:none;stroke-opacity:1"
         id="path4020"
         inkscape:connector-curvature="0" /></g><g
       id="g4022"
       transform="translate(255.2716,783.7276)"><path
         d="M 0,0 34.106,-13.302 63.258,-67.94"
         style="fill:none;stroke:#58595b;stroke-width:7.66800022;stroke-linecap:round;stroke-linejoin:round;stroke-miterlimit:10;stroke-dasharray:none;stroke-opacity:1"
         id="path4024"
         inkscape:connector-curvature="0" /></g><g
       id="g4026"
       transform="translate(416.0883,675.8889)"><path
         d="m 0,0 17.721,-17.414 0,-34.828 L 0,-69.655"
         style="fill:#58595b;fill-opacity:1;fill-rule:nonzero;stroke:#58595b;stroke-width:1.48800004;stroke-linecap:butt;stroke-linejoin:miter;stroke-miterlimit:10;stroke-dasharray:none;stroke-opacity:1"
         id="path4028"
         inkscape:connector-curvature="0" /></g><g
       id="g4030"
       transform="translate(412.2876,604.5563)"><path
         d="m 0,0 -17.721,17.414 0,34.828 L 0,69.655"
         style="fill:#58595b;fill-opacity:1;fill-rule:nonzero;stroke:#58595b;stroke-width:1.48800004;stroke-linecap:butt;stroke-linejoin:miter;stroke-miterlimit:10;stroke-dasharray:none;stroke-opacity:1"
         id="path4032"
         inkscape:connector-curvature="0" /></g><g
       id="g4034"
       transform="translate(409.0145,647.1432)"><path
         d="M 0,0 -0.286,9.189 7.529,14.031 15.63,9.684 15.916,0.495 8.101,-4.347 0,0 Z"
         style="fill:#ffffff;fill-opacity:1;fill-rule:nonzero;stroke:none"
         id="path4036"
         inkscape:connector-curvature="0" /></g><g
       id="g4038"
       transform="translate(335.8254,411.284)"><path
         d="m 0,0 -117.653,50.401 1.074,32.862 L 0,32.971 124.871,87.611 126.418,54.939 0,0 Z"
         style="fill:#58595b;fill-opacity:1;fill-rule:nonzero;stroke:none"
         id="path4040"
         inkscape:connector-curvature="0" /></g><g
       id="g4042"
       transform="translate(256.8583,675.0503)"><path
         d="m 0,0 -17.721,-17.414 0,-34.828 L 0,-69.655"
         style="fill:#58595b;fill-opacity:1;fill-rule:nonzero;stroke:#58595b;stroke-width:1.48800004;stroke-linecap:butt;stroke-linejoin:miter;stroke-miterlimit:10;stroke-dasharray:none;stroke-opacity:1"
         id="path4044"
         inkscape:connector-curvature="0" /></g><g
       id="g4046"
       transform="translate(260.659,603.7177)"><path
         d="m 0,0 17.721,17.414 0,34.828 L 0,69.655"
         style="fill:#58595b;fill-opacity:1;fill-rule:nonzero;stroke:#58595b;stroke-width:1.48800004;stroke-linecap:butt;stroke-linejoin:miter;stroke-miterlimit:10;stroke-dasharray:none;stroke-opacity:1"
         id="path4048"
         inkscape:connector-curvature="0" /></g><g
       id="g4050"
       transform="translate(263.9322,646.3045)"><path
         d="M 0,0 0.286,9.189 -7.529,14.031 -15.63,9.684 -15.916,0.495 -8.101,-4.347 0,0 Z"
         style="fill:#ffffff;fill-opacity:1;fill-rule:nonzero;stroke:none"
         id="path4052"
         inkscape:connector-curvature="0" /></g><g
       id="g3392"
       transform="translate(669.30888,608.51353)"><path
         d="m 0,0 -0.695,-14.131 c 0,0 -18.531,2.085 -27.334,2.085 -26.638,0 -33.82,-11.582 -33.82,-42.622 0,-34.283 5.328,-46.792 34.052,-46.792 8.802,0 27.334,2.084 27.334,2.084 l 0.695,-14.361 c 0,0 -21.543,-3.243 -32.199,-3.243 -36.831,0 -47.718,16.91 -47.718,62.312 0,41.927 13.667,58.143 48.182,58.143 C -20.848,3.475 0,0 0,0"
         style="fill:#59595c;fill-opacity:1;fill-rule:nonzero;stroke:none"
         id="path3394"
         inkscape:connector-curvature="0" /></g><g
       id="g3396"
       transform="translate(767.98518,558.47833)"><path
         d="M 0,0 C 0,28.724 -8.803,38.916 -29.187,38.916 -48.877,38.916 -59.996,28.028 -60.228,0 L 0,0 Z m 12.973,-49.572 0.463,-13.667 c 0,0 -26.408,-3.706 -45.171,-3.706 -34.515,0 -45.866,20.153 -45.866,59.532 0,44.013 18.996,60.923 48.414,60.923 30.809,0 46.56,-16.216 46.56,-54.205 l -0.926,-13.204 -76.443,0 c 0,-24.786 7.644,-37.758 30.346,-37.758 17.373,0 42.623,2.085 42.623,2.085"
         style="fill:#59595c;fill-opacity:1;fill-rule:nonzero;stroke:none"
         id="path3398"
         inkscape:connector-curvature="0" /></g><g
       id="g3400"
       transform="translate(815.70488,609.67173)"><path
         d="m 0,0 17.142,0 0,-15.752 c 0,0 20.152,13.898 42.39,18.3 l 0,-17.606 C 37.758,-19.459 17.373,-30.809 17.373,-30.809 l 0,-85.013 -17.373,0 L 0,0 Z"
         style="fill:#59595c;fill-opacity:1;fill-rule:nonzero;stroke:none"
         id="path3402"
         inkscape:connector-curvature="0" /></g><g
       id="g3404"
       transform="translate(925.96369,548.28593)"><path
         d="m 0,0 c -14.13,-1.39 -19.689,-8.107 -19.689,-20.849 0,-13.434 5.791,-21.31 17.604,-21.31 17.142,0 36.368,7.18 36.368,7.18 l 0,38.222 L 0,0 Z m 51.656,-32.894 c 0.464,-6.717 6.024,-9.265 13.436,-10.192 l -0.696,-13.667 c -12.276,0 -20.616,2.316 -27.565,9.266 0,0 -20.848,-9.266 -41.695,-9.266 -21.08,0 -32.662,12.046 -32.662,35.441 0,22.239 11.582,31.967 35.441,34.284 l 36.368,3.474 0,9.961 c 0,16.215 -6.949,22.006 -20.847,22.006 -16.215,0 -43.782,-3.011 -43.782,-3.011 l -0.694,13.203 c 0,0 25.48,5.097 45.402,5.097 26.176,0 37.294,-12.046 37.294,-37.295 l 0,-59.301 z"
         style="fill:#59595c;fill-opacity:1;fill-rule:nonzero;stroke:none"
         id="path3406"
         inkscape:connector-curvature="0" /></g><g
       id="g3408"
       transform="translate(1011.9041,493.84944)"><path
         d="m 0,0 0,115.822 17.142,0 0,-8.108 c 0,0 18.762,10.425 35.904,10.425 31.967,0 39.147,-15.752 39.147,-56.985 l 0,-61.154 -17.141,0 0,60.69 c 0,30.578 -3.475,41.928 -25.018,41.928 -16.678,0 -32.661,-8.571 -32.661,-8.571 L 17.373,0 0,0 Z"
         style="fill:#59595c;fill-opacity:1;fill-rule:nonzero;stroke:none"
         id="path3410"
         inkscape:connector-curvature="0" /></g><g
       id="g3412"
       transform="translate(1166.4051,548.28593)"><path
         d="m 0,0 c -14.13,-1.39 -19.689,-8.107 -19.689,-20.849 0,-13.434 5.791,-21.31 17.604,-21.31 17.142,0 36.368,7.18 36.368,7.18 l 0,38.222 L 0,0 Z m 51.656,-32.894 c 0.464,-6.717 6.024,-9.265 13.436,-10.192 l -0.696,-13.667 c -12.276,0 -20.616,2.316 -27.565,9.266 0,0 -20.848,-9.266 -41.695,-9.266 -21.08,0 -32.662,12.046 -32.662,35.441 0,22.239 11.582,31.967 35.441,34.284 l 36.368,3.474 0,9.961 c 0,16.215 -6.949,22.006 -20.847,22.006 -16.215,0 -43.782,-3.011 -43.782,-3.011 l -0.694,13.203 c 0,0 25.48,5.097 45.402,5.097 26.176,0 37.294,-12.046 37.294,-37.295 l 0,-59.301 z"
         style="fill:#59595c;fill-opacity:1;fill-rule:nonzero;stroke:none"
         id="path3414"
         inkscape:connector-curvature="0" /></g><g
       id="g3416"
       transform="translate(1260.7353,612.00613)"><path
         d="m 0,0 c 7.107,0 12.029,-5.605 12.029,-12.44 0,-6.968 -4.922,-12.437 -12.029,-12.437 -6.88,0 -11.984,5.514 -11.984,12.437 C -11.984,-5.421 -6.926,0 0,0 m 0,-22.871 c 5.786,0 10.023,4.647 10.023,10.431 0,5.741 -4.282,10.482 -10.023,10.482 -5.741,0 -9.978,-4.741 -9.978,-10.482 0,-5.738 4.282,-10.431 9.978,-10.431 m 0.366,8.382 -2.69,0 0,-4.874 -2.641,0 0,13.806 5.01,0 c 3.282,0 5.195,-1.094 5.195,-4.33 0,-2.233 -0.593,-3.463 -2.324,-4.236 l 2.505,-5.24 -2.777,0 -2.278,4.874 z m -2.735,2.142 2.689,0 c 1.638,0 2.324,0.683 2.324,2.324 0,1.641 -0.913,2.324 -2.825,2.324 l -2.188,0 0,-4.648 z"
         style="fill:#59595c;fill-opacity:1;fill-rule:nonzero;stroke:none"
         id="path3418"
         inkscape:connector-curvature="0" /></g></g></svg>